# ProBuilder 5.0.3
# https://unity3d.com/unity/features/worldbuilding/probuilder
# 2021/10/25 11:51:38

mtllib ./Taipa-Grande.mtl
o Taipa-Grande

g Taipa-Grande
v 25 0 15
v -25 0 15
v 25 105 15
v -25 105 15
v -25 0 -15
v -25 105 -15
v 25 0 -15
v 25 105 -15

vt 0.2745491 0.45
vt 0.02454913 0.45
vt 0.2745491 0.975
vt 0.02454913 0.975
vt 0.4499743 0.4499634
vt 0.2997693 0.4500367
vt 0.4502307 0.9749632
vt 0.3000257 0.9750366
vt 0.6250342 0.9748978
vt 0.6250342 0.7248978
vt 0.4750342 0.9748978
vt 0.4750342 0.7248978

vn 0 0 1
vn -1 0 0
vn 0 0 -1
vn 1 0 0
vn 0 1 0
vn 0 -1 0

usemtl Buildin-Type-1-00-Color
f 3/3/1 4/4/1 2/2/1 1/1/1
f 4/7/2 6/8/2 5/6/2 2/5/2
f 6/3/3 8/4/3 7/2/3 5/1/3
f 8/7/4 3/8/4 1/6/4 7/5/4
f 8/11/5 6/12/5 4/10/5 3/9/5
f 1/10/6 2/9/6 5/11/6 7/12/6

