# ProBuilder 6.0.1
# https://unity3d.com/unity/features/worldbuilding/probuilder
# 5/9/2024 4:37:15 PM

mtllib ./Cone.mtl
o Cone

g Cone
v -0.5 -0.5 0
v -0.25 -0.5 0.4330127
v 0 0.5 0
v 0 -0.5 0
v 0.25 -0.5 0.4330127
v 0.5 -0.5 -4.371139E-08
v 0.25 -0.5 -0.4330127
v -0.25 -0.5 -0.4330127

vt 0 0
vt 1 5.960464E-08
vt 0.5 1.322876
vt -0.5 0
vt -0.25 0.4330127
vt 0.25 0.4330127
vt 0.5 -4.371139E-08
vt 0.25 -0.4330127
vt -0.25 -0.4330127

vn -0.8944272 0.4472136 -5.031211E-08
vn -0.4472136 0.4472136 0.7745967
vn 5.000058E-08 1 -7.500087E-08
vn 0 -1 0
vn 0.4472136 0.4472136 0.7745966
vn 0.8944272 0.4472136 -6.708282E-08
vn 0.4472136 0.4472136 -0.7745966
vn -0.4472136 0.4472136 -0.7745966

usemtl B
f 1/1/1 2/2/2 3/3/3
f 4/1/4 2/5/4 1/4/4
f 2/1/2 5/2/5 3/3/3
f 4/1/4 5/6/4 2/5/4
f 5/1/5 6/2/6 3/3/3
f 4/1/4 6/7/4 5/6/4
f 6/1/6 7/2/7 3/3/3
f 4/1/4 7/8/4 6/7/4
f 7/1/7 8/2/8 3/3/3
f 4/1/4 8/9/4 7/8/4
f 8/1/8 1/2/1 3/3/3
f 4/1/4 1/4/4 8/9/4

