# ProBuilder 6.0.1
# https://unity3d.com/unity/features/worldbuilding/probuilder
# 5/9/2024 8:14:36 PM

mtllib ./Orbit.mtl
o Orbit

g Orbit
v -0.4330127 -0.025 0.25
v -0.5 -0.025 0
v -0.4330127 0.025 0.25
v -0.5 0.025 0
v -0.45 -0.025 0
v -0.3897114 -0.025 0.225
v -0.45 0.025 0
v -0.3897114 0.025 0.225
v -0.25 -0.025 0.4330127
v -0.25 0.025 0.4330127
v -0.225 -0.025 0.3897114
v -0.225 0.025 0.3897114
v 2.185569E-08 -0.025 0.5
v 2.185569E-08 0.025 0.5
v 1.967013E-08 -0.025 0.45
v 1.967013E-08 0.025 0.45
v 0.25 -0.025 0.4330127
v 0.25 0.025 0.4330127
v 0.225 -0.025 0.3897114
v 0.225 0.025 0.3897114
v 0.4330127 -0.025 0.25
v 0.4330127 0.025 0.25
v 0.3897114 -0.025 0.225
v 0.3897114 0.025 0.225
v 0.5 -0.025 -4.371139E-08
v 0.5 0.025 -4.371139E-08
v 0.45 -0.025 -3.934025E-08
v 0.45 0.025 -3.934025E-08
v 0.4330127 -0.025 -0.25
v 0.4330127 0.025 -0.25
v 0.3897114 -0.025 -0.225
v 0.3897114 0.025 -0.225
v 0.25 -0.025 -0.4330127
v 0.25 0.025 -0.4330127
v 0.225 -0.025 -0.3897114
v 0.225 0.025 -0.3897114
v -5.96244E-09 -0.025 -0.5
v -5.96244E-09 0.025 -0.5
v -5.366196E-09 -0.025 -0.45
v -5.366196E-09 0.025 -0.45
v -0.25 -0.025 -0.4330127
v -0.25 0.025 -0.4330127
v -0.225 -0.025 -0.3897114
v -0.225 0.025 -0.3897114
v -0.4330127 -0.025 -0.2500001
v -0.4330127 0.025 -0.2500001
v -0.3897114 -0.025 -0.2250001
v -0.3897114 0.025 -0.2250001

vt 0.1294095 -0.025
vt -0.1294095 -0.025
vt 0.1294095 0.025
vt -0.1294095 0.025
vt 0.1164685 -0.025
vt -0.1164686 -0.025
vt 0.1164685 0.025
vt -0.1164686 0.025
vt -0.5 0
vt -0.4330127 0.25
vt -0.45 0
vt -0.3897114 0.225
vt 0.4330127 0.25
vt 0.5 0
vt 0.3897114 0.225
vt 0.45 0
vt -0.25 0.4330127
vt -0.225 0.3897114
vt 0.25 0.4330127
vt 0.225 0.3897114
vt 2.185569E-08 0.5
vt 1.967013E-08 0.45
vt 0.25 0.4330127
vt 0.225 0.3897114
vt -0.25 0.4330127
vt -0.225 0.3897114
vt 0.3897114 0.225
vt -0.3897114 0.225
vt 0.4330127 -0.25
vt 0.3897114 -0.225
vt -0.4330127 -0.25
vt -0.3897114 -0.225
vt 0.25 -0.4330127
vt 0.225 -0.3897114
vt -0.25 -0.4330127
vt -0.225 -0.3897114
vt -5.96244E-09 -0.5
vt -5.366196E-09 -0.45
vt -0.4330127 -0.2500001
vt -0.3897114 -0.2250001
vt 0.4330127 -0.2500001
vt 0.3897114 -0.2250001

vn -0.8660254 0 0.5
vn -1 0 -1.542682E-08
vn 1 0 1.542682E-08
vn 0.8660254 0 -0.5
vn -0.5 0 0.8660254
vn 0.5 0 -0.8660254
vn 4.628045E-08 0 1
vn 0 0 -1
vn 0.5 0 0.8660254
vn -0.5 0 -0.8660254
vn 0.8660254 0 0.5
vn -0.8660254 0 -0.4999999
vn 0.8660254 0 -0.5000001
vn 0.5 0 -0.8660254
vn -0.5 0 0.8660254
vn 0.4999999 0 0.8660255
vn -0.8660253 0 -0.5000001
vn 0 -1 0
vn 0 1 0

usemtl R
f 3/3/1 4/4/2 2/2/2 1/1/1
f 7/7/3 8/8/4 6/6/4 5/5/3
f 10/3/5 3/4/1 1/2/1 9/1/5
f 8/7/4 12/8/6 11/6/6 6/5/4
f 14/3/7 10/4/5 9/2/5 13/1/7
f 12/7/6 16/8/8 15/6/8 11/5/6
f 18/3/9 14/4/7 13/2/7 17/1/9
f 16/7/8 20/8/10 19/6/10 15/5/8
f 22/3/11 18/4/9 17/2/9 21/1/11
f 20/7/10 24/8/12 23/6/12 19/5/10
f 26/3/3 22/4/11 21/2/11 25/1/3
f 24/7/12 28/8/2 27/6/2 23/5/12
f 30/3/13 26/4/3 25/2/3 29/1/13
f 28/7/2 32/8/1 31/6/1 27/5/2
f 34/3/14 30/4/13 29/2/13 33/1/14
f 32/7/1 36/8/15 35/6/15 31/5/1
f 38/3/8 34/4/14 33/2/14 37/1/8
f 36/7/15 40/8/7 39/6/7 35/5/15
f 42/3/10 38/4/8 37/2/8 41/1/10
f 40/7/7 44/8/16 43/6/16 39/5/7
f 46/3/17 42/4/10 41/2/10 45/1/17
f 44/7/16 48/8/11 47/6/11 43/5/16
f 4/3/2 46/4/17 45/2/17 2/1/2
f 48/7/11 7/8/3 5/6/3 47/5/11
f 5/11/18 6/12/18 1/10/18 2/9/18
f 8/15/19 7/16/19 4/14/19 3/13/19
f 6/12/18 11/18/18 9/17/18 1/10/18
f 12/20/19 8/15/19 3/13/19 10/19/19
f 11/18/18 15/22/18 13/21/18 9/17/18
f 16/22/19 12/20/19 10/19/19 14/21/19
f 15/22/18 19/24/18 17/23/18 13/21/18
f 20/26/19 16/22/19 14/21/19 18/25/19
f 19/24/18 23/27/18 21/13/18 17/23/18
f 24/28/19 20/26/19 18/25/19 22/10/19
f 23/27/18 27/16/18 25/14/18 21/13/18
f 28/11/19 24/28/19 22/10/19 26/9/19
f 27/16/18 31/30/18 29/29/18 25/14/18
f 32/32/19 28/11/19 26/9/19 30/31/19
f 31/30/18 35/34/18 33/33/18 29/29/18
f 36/36/19 32/32/19 30/31/19 34/35/19
f 35/34/18 39/38/18 37/37/18 33/33/18
f 40/38/19 36/36/19 34/35/19 38/37/19
f 39/38/18 43/36/18 41/35/18 37/37/18
f 44/34/19 40/38/19 38/37/19 42/33/19
f 43/36/18 47/40/18 45/39/18 41/35/18
f 48/42/19 44/34/19 42/33/19 46/41/19
f 47/40/18 5/11/18 2/9/18 45/39/18
f 7/16/19 48/42/19 46/41/19 4/14/19

